<?xml version="1.0" encoding="UTF-8" standalone="no"?>
<!DOCTYPE svg PUBLIC "-//W3C//DTD SVG 1.1//EN" "http://www.w3.org/Graphics/SVG/1.1/DTD/svg11.dtd">
<svg width="100%" height="100%" viewBox="0 0 1887 638" version="1.1" xmlns="http://www.w3.org/2000/svg" xmlns:xlink="http://www.w3.org/1999/xlink" xml:space="preserve" xmlns:serif="http://www.serif.com/" style="fill-rule:evenodd;clip-rule:evenodd;stroke-linejoin:round;stroke-miterlimit:2;">
    <g transform="matrix(0.84361,0,0,0.703642,-101.183,-760.855)">
        <rect id="Artboard1" x="119.94" y="1081.31" width="2235.71" height="906.008" style="fill:none;"/>
        <g id="Artboard11" serif:id="Artboard1">
            <g transform="matrix(0.845831,0,0,1.01408,1112.6,1132.3)">
                <g id="Layer_7_2_">
                    <path d="M786.618,487.212C786.618,434.847 762.065,388.264 723.878,358.214L723.878,315.731C723.878,141.635 582.233,0 408.154,0C234.044,0 92.42,141.635 92.42,315.729L92.42,346.835C45.032,375.621 13.381,427.702 13.381,487.202C13.381,577.85 86.859,651.325 177.508,651.325L177.508,323.078C165.84,323.078 154.46,324.323 143.471,326.622L143.471,315.72C143.471,169.789 262.198,51.053 408.152,51.053C554.102,51.053 672.824,169.78 672.824,315.72L672.824,330.966C656.969,325.851 640.055,323.068 622.455,323.068L622.455,651.306C633.101,651.306 643.459,650.216 653.517,648.278C636.891,683.582 598.964,736.92 518.584,752.206C513.348,746.351 505.797,742.609 497.34,742.609L446.122,742.609C430.278,742.609 417.433,755.464 417.433,771.309C417.433,787.153 430.278,799.998 446.122,799.998L497.36,799.998C509.645,799.998 520.071,792.226 524.149,781.356C637.103,760.111 677.885,672.346 689.942,636.655C746.926,610.956 786.618,553.771 786.618,487.212Z" style="fill:rgb(238,95,91);fill-rule:nonzero;"/>
                </g>
            </g>
            <g transform="matrix(15.7229,0,0,21.5069,-10388.2,-32579)">
                <g transform="matrix(54.1667,0,0,54.1667,812.634,1605.23)">
                </g>
                <text x="669.574px" y="1605.23px" style="font-family:'SegoeUI', 'Segoe UI', sans-serif;font-size:54.167px;fill:rgb(238,95,91);">AF   G</text>
            </g>
        </g>
    </g>
</svg>
